<svg version="1.1" viewBox="0.0 0.0 960.0 720.0" fill="none" stroke="none" stroke-linecap="square" stroke-miterlimit="10" xmlns:xlink="http://www.w3.org/1999/xlink" xmlns="http://www.w3.org/2000/svg"><clipPath id="p.0"><path d="m0 0l960.0 0l0 720.0l-960.0 0l0 -720.0z" clip-rule="nonzero"/></clipPath><g clip-path="url(#p.0)"><path fill="#000000" fill-opacity="0.0" d="m0 0l960.0 0l0 720.0l-960.0 0z" fill-rule="evenodd"/><path fill="#ff9900" d="m36.39895 98.95801l899.71655 0l0 567.5906l-899.71655 0z" fill-rule="evenodd"/><path stroke="#000000" stroke-width="1.0" stroke-linejoin="round" stroke-linecap="butt" d="m36.39895 98.95801l899.71655 0l0 567.5906l-899.71655 0z" fill-rule="evenodd"/><path fill="#ffffff" d="m166.09863 350.51196l0 0c-3.5582733 -23.213226 8.124237 -46.192932 30.090195 -59.187958c21.965973 -12.994995 50.36302 -13.726318 73.14128 -1.8835754l0 0c8.068726 -13.497131 22.836914 -22.815979 39.837402 -25.137756c17.000519 -2.3217773 34.236572 2.6261902 46.4946 13.34729l0 0c6.8735657 -12.237366 20.369873 -20.45932 35.699738 -21.748291c15.329895 -1.2889404 30.323822 4.537506 39.661133 15.411865l0 0c12.41806 -12.971588 32.175476 -18.433167 50.723145 -14.021484c18.547668 4.411682 32.55423 17.904266 35.958954 34.639404l0 0c15.214233 3.6839905 27.88733 13.049164 34.745056 25.675873c6.857666 12.626709 7.227234 27.276306 1.0131836 40.163788l0 0c14.981567 17.309296 18.486084 40.37372 9.205811 60.58603c-9.280273 20.212341 -29.95111 34.53589 -54.298553 37.625366c-0.17163086 18.970001 -11.891205 36.376617 -30.64154 45.51062c-18.750336 9.134003 -41.603485 8.569061 -59.750824 -1.4770508l0 0c-7.7297974 22.719818 -29.486633 39.43686 -55.870758 42.92874c-26.384094 3.4918823 -52.66559 -6.8674316 -67.4899 -26.602295l0 0c-18.171509 9.727356 -39.975815 12.529541 -60.494293 7.774353c-20.518494 -4.755188 -38.022766 -16.667175 -48.56424 -33.04883l0 0c-18.569016 1.9289856 -36.522675 -6.6114807 -44.950653 -21.382782c-8.4279785 -14.771271 -5.5361633 -32.628967 7.2402496 -44.710327l0 0c-16.564026 -8.6545105 -25.015999 -25.827942 -20.948532 -42.565002c4.0674744 -16.73706 19.732666 -29.245087 38.826813 -31.001648z" fill-rule="evenodd"/><path fill="#000000" fill-opacity="0.0" d="m147.8533 424.9733l0 0c7.81662 4.084076 16.84665 5.936737 25.877655 5.3091736m11.828674 60.7854c3.883667 -0.40344238 7.690399 -1.257782 11.3220215 -2.540985m97.73108 27.814423c-2.7315063 -3.6363525 -5.018463 -7.5220947 -6.82193 -11.591003m130.18732 -4.736145l0 0c1.4092712 -4.1421814 2.3223267 -8.405365 2.723999 -12.718445m87.66495 -31.313538c0.18270874 -20.196472 -12.739319 -38.68857 -33.215668 -47.533417m78.30795 -50.675842c-3.31604 6.877289 -8.378418 12.978027 -14.790161 17.823883m-20.964966 -83.665344l0 0c0.5650635 2.7772217 0.8265381 5.596161 0.7808838 8.417755m-87.46149 -29.03482l0 0c-3.0976868 3.2357483 -5.6497498 6.8516846 -7.576782 10.735168m-67.78479 -4.400177l0 0c-1.6507874 2.9390259 -2.8835144 6.049011 -3.6697388 9.258331m-82.66354 2.5323792l0 0c4.8198547 2.5059204 9.2789 5.522064 13.279144 8.982147m-116.50928 52.08972l0 0c0.49041748 3.1994019 1.2653198 6.3593445 2.3174286 9.450256" fill-rule="evenodd"/><path stroke="#000000" stroke-width="1.0" stroke-linejoin="round" stroke-linecap="butt" d="m166.09863 350.51196l0 0c-3.5582733 -23.213226 8.124237 -46.192932 30.090195 -59.187958c21.965973 -12.994995 50.36302 -13.726318 73.14128 -1.8835754l0 0c8.068726 -13.497131 22.836914 -22.815979 39.837402 -25.137756c17.000519 -2.3217773 34.236572 2.6261902 46.4946 13.34729l0 0c6.8735657 -12.237366 20.369873 -20.45932 35.699738 -21.748291c15.329895 -1.2889404 30.323822 4.537506 39.661133 15.411865l0 0c12.41806 -12.971588 32.175476 -18.433167 50.723145 -14.021484c18.547668 4.411682 32.55423 17.904266 35.958954 34.639404l0 0c15.214233 3.6839905 27.88733 13.049164 34.745056 25.675873c6.857666 12.626709 7.227234 27.276306 1.0131836 40.163788l0 0c14.981567 17.309296 18.486084 40.37372 9.205811 60.58603c-9.280273 20.212341 -29.95111 34.53589 -54.298553 37.625366c-0.17163086 18.970001 -11.891205 36.376617 -30.64154 45.51062c-18.750336 9.134003 -41.603485 8.569061 -59.750824 -1.4770508l0 0c-7.7297974 22.719818 -29.486633 39.43686 -55.870758 42.92874c-26.384094 3.4918823 -52.66559 -6.8674316 -67.4899 -26.602295l0 0c-18.171509 9.727356 -39.975815 12.529541 -60.494293 7.774353c-20.518494 -4.755188 -38.022766 -16.667175 -48.56424 -33.04883l0 0c-18.569016 1.9289856 -36.522675 -6.6114807 -44.950653 -21.382782c-8.4279785 -14.771271 -5.5361633 -32.628967 7.2402496 -44.710327l0 0c-16.564026 -8.6545105 -25.015999 -25.827942 -20.948532 -42.565002c4.0674744 -16.73706 19.732666 -29.245087 38.826813 -31.001648z" fill-rule="evenodd"/><path stroke="#000000" stroke-width="1.0" stroke-linejoin="round" stroke-linecap="butt" d="m147.8533 424.9733l0 0c7.81662 4.084076 16.84665 5.936737 25.877655 5.3091736m11.828674 60.7854c3.883667 -0.40344238 7.690399 -1.257782 11.3220215 -2.540985m97.73108 27.814423c-2.7315063 -3.6363525 -5.018463 -7.5220947 -6.82193 -11.591003m130.18732 -4.736145l0 0c1.4092712 -4.1421814 2.3223267 -8.405365 2.723999 -12.718445m87.66495 -31.313538c0.18270874 -20.196472 -12.739319 -38.68857 -33.215668 -47.533417m78.30795 -50.675842c-3.31604 6.877289 -8.378418 12.978027 -14.790161 17.823883m-20.964966 -83.665344l0 0c0.5650635 2.7772217 0.8265381 5.596161 0.7808838 8.417755m-87.46149 -29.03482l0 0c-3.0976868 3.2357483 -5.6497498 6.8516846 -7.576782 10.735168m-67.78479 -4.400177l0 0c-1.6507874 2.9390259 -2.8835144 6.049011 -3.6697388 9.258331m-82.66354 2.5323792l0 0c4.8198547 2.5059204 9.2789 5.522064 13.279144 8.982147m-116.50928 52.08972l0 0c0.49041748 3.1994019 1.2653198 6.3593445 2.3174286 9.450256" fill-rule="evenodd"/><path fill="#ffff00" d="m732.1065 213.83989l52.221863 114.29921l-21.540955 13.479034l65.7771 97.94391l-21.540894 16.355316l81.319885 163.98553l-137.90936 -125.67273l26.30133 -17.445679l-85.68756 -80.49823l30.704712 -24.871368l-90.4718 -84.446045z" fill-rule="evenodd"/><path stroke="#000000" stroke-width="1.0" stroke-linejoin="round" stroke-linecap="butt" d="m732.1065 213.83989l52.221863 114.29921l-21.540955 13.479034l65.7771 97.94391l-21.540894 16.355316l81.319885 163.98553l-137.90936 -125.67273l26.30133 -17.445679l-85.68756 -80.49823l30.704712 -24.871368l-90.4718 -84.446045z" fill-rule="evenodd"/></g></svg>