<svg version="1.1" viewBox="0.0 0.0 532.4015748031496 531.496062992126" fill="none" stroke="none" stroke-linecap="square" stroke-miterlimit="10" xmlns:xlink="http://www.w3.org/1999/xlink" xmlns="http://www.w3.org/2000/svg"><clipPath id="p.0"><path d="m0 0l532.40155 0l0 531.49603l-532.40155 0l0 -531.49603z" clip-rule="nonzero"/></clipPath><g clip-path="url(#p.0)"><path fill="#000000" fill-opacity="0.0" d="m0 0l532.40155 0l0 531.49603l-532.40155 0z" fill-rule="evenodd"/><path fill="#00ffff" d="m0.22047244 263.88977l0 0c0 -145.74231 118.14747 -263.88977 263.88977 -263.88977l0 0c69.987915 0 137.10931 27.802591 186.59824 77.29152c49.488953 49.488937 77.291534 116.61032 77.291534 186.59825l0 0c0 145.74228 -118.14746 263.88977 -263.88977 263.88977l0 0c-145.74228 0 -263.88977 -118.14749 -263.88977 -263.88977z" fill-rule="evenodd"/><path stroke="#000000" stroke-width="1.0" stroke-linejoin="round" stroke-linecap="butt" d="m0.22047244 263.88977l0 0c0 -145.74231 118.14747 -263.88977 263.88977 -263.88977l0 0c69.987915 0 137.10931 27.802591 186.59824 77.29152c49.488953 49.488937 77.291534 116.61032 77.291534 186.59825l0 0c0 145.74228 -118.14746 263.88977 -263.88977 263.88977l0 0c-145.74228 0 -263.88977 -118.14749 -263.88977 -263.88977z" fill-rule="evenodd"/><path fill="#000000" d="m121.55326 474.99738c-27.095085 -64.52222 -7.4750824 -139.19882 47.83584 -182.07022c55.31093 -42.871414 132.52103 -43.24768 188.24716 -0.9173584c55.726105 42.330322 76.073 116.81213 49.608032 181.59534z" fill-rule="evenodd"/><path stroke="#000000" stroke-width="1.0" stroke-linejoin="round" stroke-linecap="butt" d="m121.55326 474.99738c-27.095085 -64.52222 -7.4750824 -139.19882 47.83584 -182.07022c55.31093 -42.871414 132.52103 -43.24768 188.24716 -0.9173584c55.726105 42.330322 76.073 116.81213 49.608032 181.59534z" fill-rule="evenodd"/><path fill="#000000" d="m154.06299 158.38058l0 0c0 -60.77742 49.269836 -110.04726 110.04724 -110.04726l0 0c29.18634 0 57.177307 11.594231 77.815155 32.23209c20.637878 20.637863 32.232086 48.628807 32.232086 77.81516l0 0c0 60.777405 -49.269806 110.04724 -110.04724 110.04724l0 0c-60.777405 0 -110.04724 -49.269836 -110.04724 -110.04724z" fill-rule="evenodd"/><path stroke="#000000" stroke-width="1.0" stroke-linejoin="round" stroke-linecap="butt" d="m154.06299 158.38058l0 0c0 -60.77742 49.269836 -110.04726 110.04724 -110.04726l0 0c29.18634 0 57.177307 11.594231 77.815155 32.23209c20.637878 20.637863 32.232086 48.628807 32.232086 77.81516l0 0c0 60.777405 -49.269806 110.04724 -110.04724 110.04724l0 0c-60.777405 0 -110.04724 -49.269836 -110.04724 -110.04724z" fill-rule="evenodd"/></g></svg>